<?xml version="1.0" standalone="no"?>
<!DOCTYPE svg PUBLIC "-//W3C//DTD SVG 20010904//EN"
 "http://www.w3.org/TR/2001/REC-SVG-20010904/DTD/svg10.dtd">
<svg version="1.0" xmlns="http://www.w3.org/2000/svg"
 width="1000.000000pt" height="470.000000pt" viewBox="0 0 1000.000000 470.000000"
 preserveAspectRatio="xMidYMid meet">

<g transform="translate(0.000000,470.000000) scale(0.100000,-0.100000)"
fill="#000000" stroke="none">
<path d="M57 4612 c-15 -48 -27 -93 -27 -100 0 -15 42 -16 56 -2 17 17 112 32
230 37 89 3 113 1 123 -11 9 -11 11 -148 9 -588 -3 -527 -4 -575 -20 -598 -10
-13 -18 -28 -18 -32 0 -5 80 -8 179 -7 l178 2 -19 50 c-18 47 -19 83 -18 610
0 316 4 565 9 570 5 5 58 7 118 4 147 -8 164 -11 200 -32 17 -10 37 -16 45
-13 14 6 48 132 48 176 l0 22 -533 0 -532 0 -28 -88z"/>
<path d="M3426 4688 c4 -7 15 -22 24 -33 31 -35 130 -241 130 -269 0 -8 5 -18
10 -21 6 -3 10 -16 10 -28 0 -13 6 -31 13 -42 7 -11 23 -47 36 -80 13 -33 29
-73 37 -90 7 -16 31 -79 54 -140 23 -60 53 -133 65 -161 13 -28 29 -71 35 -95
7 -24 18 -51 25 -59 7 -8 18 -33 25 -55 7 -22 19 -49 26 -60 8 -11 14 -27 14
-36 0 -9 19 -43 41 -77 42 -63 132 -133 148 -116 5 5 16 32 26 59 10 28 24 57
31 65 7 8 29 55 49 104 20 49 40 96 45 105 4 9 12 27 18 41 6 14 25 57 43 95
28 62 61 134 104 229 7 17 16 40 19 51 4 11 13 28 20 38 12 15 18 16 35 7 12
-6 21 -19 21 -28 0 -10 4 -22 9 -28 5 -5 23 -43 39 -85 17 -42 40 -92 51 -113
12 -20 21 -44 21 -52 0 -9 7 -28 15 -42 28 -52 85 -183 85 -196 0 -7 7 -19 15
-26 8 -7 15 -19 15 -27 0 -41 78 -139 142 -179 21 -13 39 -24 41 -24 4 0 13
20 52 115 7 17 18 48 25 70 7 22 17 48 22 59 5 10 18 44 28 75 10 31 37 103
60 161 23 58 44 117 47 132 3 15 11 33 19 39 8 6 14 22 14 35 0 22 7 41 32 84
11 20 13 27 28 80 7 25 18 54 25 65 6 11 17 40 25 65 8 25 19 54 25 65 7 11
18 40 25 65 8 25 20 54 27 65 7 11 13 29 13 41 0 11 3 24 6 27 9 8 43 108 44
125 0 9 -39 12 -165 12 -167 0 -189 -5 -148 -36 34 -24 12 -265 -28 -309 -5
-5 -9 -18 -9 -30 0 -12 -4 -25 -9 -30 -5 -6 -17 -37 -26 -70 -10 -33 -29 -81
-42 -107 -12 -26 -23 -56 -23 -66 0 -10 -3 -21 -6 -25 -4 -3 -17 -36 -29 -72
-31 -88 -52 -120 -70 -105 -7 6 -34 66 -60 133 -26 67 -56 141 -66 164 -11 24
-19 46 -19 49 0 7 -26 69 -41 96 -5 10 -9 23 -9 30 0 6 -6 19 -13 27 -7 9 -20
36 -27 61 -7 25 -19 56 -26 70 -7 14 -30 69 -51 122 l-38 98 -137 0 c-76 0
-138 -4 -138 -9 0 -5 7 -14 15 -21 8 -7 26 -35 40 -62 43 -85 33 -186 -30
-323 -7 -16 -23 -55 -35 -85 -12 -30 -30 -71 -40 -90 -10 -19 -26 -53 -35 -75
-17 -41 -23 -56 -47 -115 -8 -19 -21 -50 -28 -67 -16 -42 -47 -44 -60 -5 -6
15 -15 35 -20 44 -6 10 -10 25 -10 33 0 8 -4 23 -9 33 -13 27 -37 84 -49 117
-13 37 -108 269 -126 310 -8 17 -19 48 -26 70 -7 22 -18 53 -26 68 -8 16 -14
34 -14 41 0 7 -11 36 -25 64 -14 29 -25 56 -25 62 0 6 -61 10 -166 10 -129 0
-164 -3 -158 -12z"/>
<path d="M6735 4401 c-27 -10 -70 -27 -95 -36 -45 -17 -55 -24 -112 -79 -83
-82 -106 -221 -53 -325 15 -30 37 -62 49 -72 11 -10 37 -31 56 -47 31 -26 66
-44 187 -98 18 -8 35 -18 37 -23 3 -5 18 -12 32 -15 36 -9 83 -46 100 -78 16
-31 18 -95 4 -132 -6 -16 -29 -35 -59 -51 -104 -52 -279 -25 -413 65 -33 22
-62 40 -64 40 -7 0 4 -70 13 -82 6 -7 13 -34 17 -59 4 -26 15 -53 24 -61 26
-22 100 -46 167 -53 215 -25 354 12 462 122 75 77 80 84 98 135 37 107 3 214
-94 296 -31 26 -67 53 -81 59 -248 113 -320 168 -320 245 0 24 6 54 13 68 42
84 252 80 366 -7 28 -21 47 -29 51 -23 9 14 0 160 -10 180 -11 19 -105 38
-225 45 -83 4 -108 2 -150 -14z"/>
<path d="M1237 4392 c-15 -3 -15 -6 -2 -26 12 -19 15 -98 15 -502 0 -296 -4
-492 -10 -514 -5 -19 -10 -35 -10 -36 0 0 61 -1 135 -2 104 -1 135 1 135 11 0
7 -5 18 -11 24 -8 8 -14 89 -17 242 -4 192 -2 231 9 232 52 3 543 -2 549 -6
20 -13 7 -437 -15 -488 -7 -16 2 -17 106 -16 63 1 122 -2 132 -6 28 -12 31 1
14 56 -24 74 -25 904 -2 974 9 25 14 49 11 54 -4 6 -256 3 -264 -4 -1 -1 5
-16 13 -32 13 -25 15 -66 13 -214 l-3 -184 -274 -3 c-213 -2 -276 1 -283 10
-12 20 -10 350 3 387 6 18 9 34 6 37 -6 6 -224 11 -250 6z"/>
<path d="M2497 4388 c-7 -4 -4 -16 9 -35 18 -27 19 -51 19 -483 0 -383 -3
-463 -16 -507 l-16 -52 348 0 349 -1 6 27 c4 16 10 33 14 38 13 18 41 117 35
123 -3 3 -20 -1 -38 -10 -71 -37 -138 -47 -280 -44 -107 2 -141 6 -148 17 -5
8 -8 91 -6 184 l2 170 120 0 c66 0 128 -4 138 -9 15 -7 17 -1 17 68 l0 76
-134 0 c-120 0 -135 2 -139 18 -3 9 -4 78 -3 152 l1 135 141 0 c104 0 148 -4
168 -15 24 -12 28 -12 37 0 9 16 1 130 -10 143 -9 9 -599 15 -614 5z"/>
<path d="M5545 4388 c-3 -8 -1 -27 5 -42 12 -33 13 -929 1 -993 -6 -30 -5 -43
3 -43 6 0 159 0 341 0 350 1 340 -1 351 50 3 14 12 39 19 55 8 17 18 45 21 64
7 33 6 33 -17 21 -13 -8 -28 -19 -34 -25 -27 -32 -374 -45 -410 -15 -22 18
-22 331 -1 349 13 11 168 11 246 0 24 -4 25 -2 28 60 2 35 -1 68 -6 73 -5 5
-63 9 -127 9 -130 -1 -172 12 -160 49 9 27 10 214 2 227 -11 17 30 36 88 41
58 4 233 -17 241 -29 3 -5 12 -9 20 -9 11 0 14 17 14 80 l0 80 -287 0 c-159 0
-298 3 -310 6 -15 4 -25 1 -28 -8z"/>
<path d="M7721 4392 c-286 -1 -418 -6 -428 -13 -7 -6 -13 -24 -13 -39 0 -15
-7 -44 -16 -65 -18 -43 -13 -53 19 -37 33 16 111 26 207 26 l85 1 3 -443 c2
-384 0 -447 -13 -473 -9 -16 -14 -33 -11 -37 2 -4 62 -5 133 -2 70 3 134 1
140 -3 18 -13 28 19 15 48 -18 38 -17 895 0 906 31 20 201 5 250 -22 30 -15
36 -11 47 39 22 99 22 109 9 113 -7 2 -199 3 -427 1z"/>
<path d="M8353 4382 c-3 -7 1 -20 8 -29 11 -13 15 -108 17 -487 2 -425 1 -475
-14 -509 -10 -20 -15 -40 -12 -43 3 -3 70 -5 149 -5 l144 0 -4 23 c-6 30 -6
1006 0 1036 4 22 4 22 -140 25 -108 1 -145 -1 -148 -11z"/>
<path d="M8893 4394 c-9 -4 -5 -16 11 -42 37 -58 46 -159 46 -531 0 -334 -7
-427 -36 -482 -7 -15 -12 -28 -9 -30 2 -2 50 -1 107 2 56 3 111 2 120 -3 25
-12 30 5 13 52 -12 33 -15 106 -17 325 -2 156 1 287 5 291 11 11 59 -17 72
-41 5 -11 26 -36 45 -56 19 -20 46 -51 60 -68 14 -18 36 -45 50 -60 14 -16 54
-65 90 -110 36 -44 68 -81 72 -81 4 0 14 -12 22 -27 22 -43 130 -149 167 -166
63 -28 114 -45 156 -52 l41 -6 4 498 c3 442 6 502 21 537 9 21 15 41 13 45 -5
7 -245 6 -253 -2 -3 -3 4 -21 15 -39 20 -32 21 -49 22 -317 1 -185 -2 -287 -9
-294 -7 -7 -21 -2 -46 17 -19 15 -35 31 -35 35 0 4 -10 19 -22 33 -13 14 -32
36 -43 49 -11 13 -90 107 -175 208 -85 101 -171 205 -191 233 -56 76 -66 80
-193 84 -61 1 -116 0 -123 -2z"/>
<path d="M3702 2562 c-17 -12 -25 -186 -17 -360 l7 -133 27 3 c26 3 26 4 31
103 6 112 -5 101 94 97 l43 -2 49 -97 c43 -85 53 -98 77 -101 15 -2 27 1 27 6
0 13 -57 133 -75 158 -14 19 -13 23 6 47 11 15 27 27 34 27 7 0 23 16 35 36
40 64 22 162 -37 201 -22 14 -53 19 -158 21 -71 1 -136 -1 -143 -6z m258 -55
c30 -15 50 -69 42 -116 -4 -28 -12 -36 -46 -51 -50 -22 -164 -26 -191 -6 -16
11 -19 28 -19 100 l-1 86 95 0 c56 0 105 -5 120 -13z"/>
<path d="M4255 2560 c-10 -16 -7 -472 3 -482 5 -5 76 -7 158 -6 145 3 149 4
152 25 3 22 1 22 -130 25 l-133 3 0 90 0 90 73 3 c73 3 73 3 70 30 -3 26 -6
27 -73 32 l-70 5 0 70 0 70 125 5 c117 5 125 6 125 25 0 19 -8 20 -147 23 -95
2 -149 -1 -153 -8z"/>
<path d="M4767 2535 c-35 -34 -43 -56 -39 -110 5 -51 47 -89 128 -114 48 -15
103 -41 127 -60 28 -23 23 -85 -10 -111 -24 -19 -38 -21 -100 -18 -50 2 -77 9
-90 21 -25 22 -52 22 -60 1 -4 -11 1 -22 13 -30 10 -7 25 -19 33 -25 40 -35
202 -28 241 10 38 37 54 136 30 181 -11 21 -80 55 -170 84 -85 28 -103 53 -84
123 9 33 90 48 147 27 80 -30 121 -17 77 24 -26 24 -62 32 -145 32 -57 0 -65
-3 -98 -35z"/>
<path d="M5325 2551 c-46 -28 -79 -72 -104 -139 -21 -54 -22 -68 -13 -119 30
-166 129 -253 255 -224 93 22 155 114 164 241 4 66 2 82 -22 132 -19 41 -40
67 -74 93 -44 31 -55 35 -112 35 -45 0 -73 -6 -94 -19z m163 -45 c46 -24 61
-49 73 -125 17 -100 1 -182 -44 -228 -29 -31 -36 -33 -97 -33 -61 0 -68 2 -97
33 -49 50 -64 105 -53 200 10 88 37 140 80 156 38 14 108 13 138 -3z"/>
<path d="M5804 2557 c-2 -7 -3 -118 -2 -247 3 -227 4 -235 23 -235 18 0 20 8
25 95 l5 95 73 3 c62 2 72 1 72 -14 0 -10 6 -25 14 -33 16 -20 52 -87 66 -123
7 -20 16 -28 34 -28 14 0 27 4 31 9 3 6 -10 39 -29 75 -44 83 -52 146 -18 146
9 0 30 16 46 37 25 31 29 44 27 91 -2 63 -26 100 -79 126 -42 21 -280 24 -288
3z m290 -70 c22 -27 28 -90 11 -116 -14 -24 -72 -43 -145 -48 -101 -7 -110 1
-110 106 0 43 3 81 8 85 4 4 54 6 110 4 100 -3 105 -4 126 -31z"/>
<path d="M6304 2556 c-10 -26 6 -36 61 -36 91 0 85 14 85 -215 0 -112 3 -210
6 -219 8 -20 38 -21 53 -2 8 10 11 74 9 220 l-3 206 40 5 c22 3 56 6 75 7 27
2 35 7 35 23 0 19 -8 20 -178 23 -149 2 -178 0 -183 -12z"/>
<path d="M3307 1513 c-10 -10 -8 -446 2 -462 5 -8 16 -11 25 -8 14 5 16 28 16
155 0 121 3 152 15 162 12 10 18 10 31 -1 17 -14 68 -86 94 -131 8 -14 32 -52
53 -82 20 -31 37 -60 37 -64 0 -5 11 -19 24 -31 22 -21 25 -21 40 -6 14 15 16
44 14 243 l-3 227 -23 0 -23 0 -2 -170 c-2 -209 -10 -218 -83 -95 -27 44 -63
104 -81 133 -18 28 -37 63 -43 77 -6 14 -19 33 -27 42 -16 18 -54 24 -66 11z"/>
<path d="M3850 1352 c0 -182 7 -220 49 -265 70 -76 168 -77 249 -3 45 40 52
76 52 263 l0 174 -22 -3 c-23 -3 -23 -5 -26 -180 l-2 -177 -34 -36 c-30 -32
-38 -35 -87 -35 -58 0 -90 15 -111 53 -9 14 -15 83 -18 197 -5 172 -5 175 -27
178 l-23 3 0 -169z"/>
<path d="M4443 1504 c-39 -17 -63 -59 -63 -112 0 -51 37 -92 105 -117 116 -42
152 -62 157 -88 7 -38 -16 -85 -47 -93 -36 -9 -145 2 -158 15 -6 6 -21 11 -34
11 -39 0 -30 -38 15 -56 20 -9 46 -21 56 -26 32 -17 97 -11 143 13 59 30 71
46 79 107 7 52 6 53 -33 90 -29 28 -60 44 -115 60 -41 13 -85 32 -97 43 -27
25 -27 73 -1 99 25 25 116 28 162 4 34 -17 52 -8 46 22 -7 39 -148 58 -215 28z"/>
<path d="M5004 1512 c-7 -4 -17 -27 -24 -51 -6 -24 -15 -51 -20 -60 -17 -34
-30 -69 -55 -146 -15 -44 -38 -103 -51 -130 -26 -54 -30 -80 -14 -90 16 -10
60 41 60 69 0 42 29 53 135 50 52 -2 99 -6 105 -9 5 -3 13 -23 16 -44 4 -27
14 -43 34 -55 27 -16 29 -15 35 4 4 13 0 31 -9 45 -9 13 -16 29 -16 35 0 6 -9
29 -19 53 -11 23 -28 69 -40 102 -11 33 -29 85 -41 115 -11 30 -20 62 -20 71
0 33 -48 59 -76 41z m52 -124 c22 -43 51 -149 46 -170 -3 -15 -14 -18 -62 -18
-32 0 -65 3 -74 6 -23 9 -20 44 11 121 40 104 52 113 79 61z"/>
<path d="M5642 1512 c-11 -8 -14 -55 -13 -232 1 -123 4 -227 7 -232 7 -11 142
-10 183 2 97 28 161 120 161 234 0 93 -47 169 -130 212 -39 20 -186 31 -208
16z m198 -65 c84 -43 114 -156 70 -263 -28 -67 -72 -92 -160 -90 l-65 1 -5
170 c-3 94 -1 178 3 188 12 26 100 23 157 -6z"/>
<path d="M6151 1509 l-24 -9 6 -145 c11 -233 29 -279 122 -311 104 -36 186 3
231 111 18 45 20 335 2 353 -30 30 -35 12 -41 -164 -9 -230 -22 -254 -136
-254 -43 0 -52 4 -80 35 l-31 36 0 179 c0 192 1 189 -49 169z"/>
<path d="M6805 1508 c-2 -7 -13 -40 -25 -73 -12 -33 -34 -96 -50 -140 -41
-118 -52 -148 -61 -170 -13 -35 -20 -76 -13 -86 12 -20 45 26 68 94 5 15 19
17 106 17 55 0 103 1 107 1 12 2 41 -53 42 -78 1 -19 26 -43 46 -43 15 0 -4
89 -34 165 -18 44 -41 107 -52 140 -11 33 -26 74 -34 92 -8 17 -15 38 -15 45
0 35 -75 66 -85 36z m58 -105 c25 -50 59 -172 53 -188 -4 -12 -22 -15 -80 -15
-87 0 -97 10 -66 70 11 22 20 44 20 50 0 19 42 110 51 110 5 0 15 -12 22 -27z"/>
<path d="M5043 489 c-13 -5 -23 -10 -23 -13 0 -2 -14 -41 -31 -87 -53 -147
-90 -253 -98 -284 -4 -16 -15 -44 -24 -62 -22 -42 -22 -43 13 -43 26 0 31 5
42 42 23 82 26 84 133 82 96 -2 125 -11 125 -42 0 -9 5 -31 12 -49 9 -24 18
-33 35 -33 17 0 23 6 23 23 0 23 -19 83 -33 104 -4 7 -16 36 -26 65 -54 155
-65 186 -82 224 -11 23 -19 48 -19 57 0 20 -20 26 -47 16z m52 -166 c9 -32 21
-63 27 -70 5 -6 8 -27 6 -45 l-3 -33 -65 -3 c-79 -4 -99 12 -75 59 8 15 15 37
15 49 0 11 4 20 9 20 5 0 11 18 15 40 5 34 10 40 30 40 21 0 27 -8 41 -57z"/>
<path d="M5435 487 c-2 -6 -6 -119 -7 -250 l-3 -237 153 0 c159 0 163 1 146
44 -5 13 -25 16 -119 16 -76 0 -116 4 -121 12 -4 6 -6 91 -5 188 1 97 -1 188
-4 202 -7 29 -33 45 -40 25z"/>
<path d="M5885 492 c-3 -3 -5 -115 -5 -249 l0 -243 30 0 30 0 0 244 0 244 -25
4 c-13 3 -27 3 -30 0z"/>
<path d="M4380 245 l0 -245 121 0 c120 0 120 0 160 32 21 17 39 36 39 41 0 6
7 18 16 28 23 25 11 81 -26 123 -35 40 -36 50 -10 83 27 34 26 92 -1 127 -34
43 -80 56 -195 56 l-104 0 0 -245z m248 179 c28 -18 31 -82 5 -113 -16 -17
-31 -21 -108 -22 l-90 -2 -5 64 c-7 87 3 96 100 91 41 -2 85 -10 98 -18z m-8
-187 c14 -7 34 -29 45 -49 19 -35 19 -37 1 -76 -13 -28 -28 -44 -49 -51 -41
-15 -174 -14 -183 1 -9 14 -9 162 0 177 10 15 155 14 186 -2z"/>
</g>
</svg>
